<svg width="20" height="16" viewBox="0 0 20 16" fill="none" xmlns="http://www.w3.org/2000/svg">
<path d="M8.875 1H19L18.625 1.75L19 2.5V4L18.625 4.75L19 5.5V7L18.625 7.75L19 8.5V10L18.625 10.75L19 11.5V13L18.625 13.75L19 14.5H1L1.375 13.75L1 13V11.5L1.375 10.75L1 10V8.5L1.375 7.75L1 7L8.875 1Z" fill="black"/>
<path d="M1 13H19V14.5H1V13Z" fill="white"/>
<path d="M1 10H19V11.5H1V10Z" fill="white"/>
<path d="M1 7H19V8.5H1V7Z" fill="white"/>
<path d="M8.875 4H19V5.5H8.875V4Z" fill="white"/>
<path d="M8.875 1H19V2.5H8.875V1Z" fill="white"/>
<path d="M1 1H8.875V7H1V1Z" fill="black"/>
<path d="M2.31883 1.35156L2.43789 1.71801H2.8232L2.51147 1.94451L2.63057 2.31096L2.31883 2.08446L2.00709 2.31096L2.12619 1.94451L1.81445 1.71801H2.19977L2.31883 1.35156Z" fill="white"/>
<path d="M4.06492 1.35156L4.18398 1.71801H4.5693L4.25756 1.94451L4.37666 2.31096L4.06492 2.08446L3.75322 2.31096L3.87228 1.94451L3.56055 1.71801H3.94586L4.06492 1.35156Z" fill="white"/>
<path d="M5.81102 1.35156L5.93008 1.71801H6.31539L6.00369 1.94451L6.12275 2.31096L5.81102 2.08446L5.49932 2.31096L5.61838 1.94451L5.30664 1.71801H5.69195L5.81102 1.35156Z" fill="white"/>
<path d="M7.55516 1.35156L7.67422 1.71801H8.05953L7.74783 1.94451L7.86689 2.31096L7.55516 2.08446L7.24346 2.31096L7.36252 1.94451L7.05078 1.71801H7.43609L7.55516 1.35156Z" fill="white"/>
<path d="M2.31883 2.79688L2.43789 3.16333H2.8232L2.51147 3.38979L2.63057 3.75624L2.31883 3.52978L2.00709 3.75624L2.12619 3.38979L1.81445 3.16333H2.19977L2.31883 2.79688Z" fill="white"/>
<path d="M4.06492 2.79688L4.18398 3.16333H4.5693L4.25756 3.38979L4.37666 3.75624L4.06492 3.52978L3.75322 3.75624L3.87228 3.38979L3.56055 3.16333H3.94586L4.06492 2.79688Z" fill="white"/>
<path d="M5.81102 2.79688L5.93008 3.16333H6.31539L6.00369 3.38979L6.12275 3.75624L5.81102 3.52978L5.49932 3.75624L5.61838 3.38979L5.30664 3.16333H5.69195L5.81102 2.79688Z" fill="white"/>
<path d="M7.55516 2.79688L7.67422 3.16333H8.05953L7.74783 3.38979L7.86689 3.75624L7.55516 3.52978L7.24346 3.75624L7.36252 3.38979L7.05078 3.16333H7.43609L7.55516 2.79688Z" fill="white"/>
<path d="M2.31883 4.24219L2.43789 4.60864H2.8232L2.51147 4.8351L2.63057 5.20155L2.31883 4.97509L2.00709 5.20155L2.12619 4.8351L1.81445 4.60864H2.19977L2.31883 4.24219Z" fill="white"/>
<path d="M4.06492 4.24219L4.18398 4.60864H4.5693L4.25756 4.8351L4.37666 5.20155L4.06492 4.97509L3.75322 5.20155L3.87228 4.8351L3.56055 4.60864H3.94586L4.06492 4.24219Z" fill="white"/>
<path d="M5.81102 4.24219L5.93008 4.60864H6.31539L6.00369 4.8351L6.12275 5.20155L5.81102 4.97509L5.49932 5.20155L5.61838 4.8351L5.30664 4.60864H5.69195L5.81102 4.24219Z" fill="white"/>
<path d="M7.55516 4.24219L7.67422 4.60864H8.05953L7.74783 4.8351L7.86689 5.20155L7.55516 4.97509L7.24346 5.20155L7.36252 4.8351L7.05078 4.60864H7.43609L7.55516 4.24219Z" fill="white"/>
<path d="M2.31883 5.6875L2.43789 6.05395H2.8232L2.51147 6.28045L2.63057 6.6469L2.31883 6.4204L2.00709 6.6469L2.12619 6.28045L1.81445 6.05395H2.19977L2.31883 5.6875Z" fill="white"/>
<path d="M4.06492 5.6875L4.18398 6.05395H4.5693L4.25756 6.28045L4.37666 6.6469L4.06492 6.4204L3.75322 6.6469L3.87228 6.28045L3.56055 6.05395H3.94586L4.06492 5.6875Z" fill="white"/>
<path d="M5.81102 5.6875L5.93008 6.05395H6.31539L6.00369 6.28045L6.12275 6.6469L5.81102 6.4204L5.49932 6.6469L5.61838 6.28045L5.30664 6.05395H5.69195L5.81102 5.6875Z" fill="white"/>
<path d="M7.55516 5.6875L7.67422 6.05395H8.05953L7.74783 6.28045L7.86689 6.6469L7.55516 6.4204L7.24346 6.6469L7.36252 6.28045L7.05078 6.05395H7.43609L7.55516 5.6875Z" fill="white"/>
<rect x="0.5" y="0.5" width="19" height="15" stroke="black"/>
</svg>
