<svg width="18" height="18" viewBox="0 0 18 18" fill="none" xmlns="http://www.w3.org/2000/svg">
<path d="M2.25 0.75C1.4295 0.75 0.75 1.4295 0.75 2.25V15.75C0.75 16.5705 1.4295 17.25 2.25 17.25H15.75C16.5705 17.25 17.25 16.5705 17.25 15.75V2.25C17.25 1.4295 16.5705 0.75 15.75 0.75H2.25ZM2.25 2.25H15.75V15.75H11.859V10.6875H13.8045L14.0858 8.4375H11.8597V6.984C11.8597 6.3285 12.0203 5.883 12.9608 5.883H14.1795V3.84375C13.9718 3.8175 13.251 3.77325 12.4222 3.77325C10.6935 3.77325 9.516 4.8135 9.516 6.75V8.4375H7.54725V10.6875H9.51525V15.75H2.25V2.25Z" fill="#252525"/>
</svg>
