<svg width="20" height="21" viewBox="0 0 20 21" fill="none" xmlns="http://www.w3.org/2000/svg">
<path d="M9 11.5C9 10.9477 9.44771 10.5 10 10.5C10.5523 10.5 11 10.9477 11 11.5V14.5C11 15.0523 10.5523 15.5 10 15.5C9.44771 15.5 9 15.0523 9 14.5V11.5ZM10 6C9.17157 6 8.5 6.67157 8.5 7.5C8.5 8.32843 9.17157 9 10 9C10.8284 9 11.5 8.32843 11.5 7.5C11.5 6.67157 10.8284 6 10 6ZM0 10.5C0 4.97715 4.47715 0.5 10 0.5C15.5228 0.5 20 4.97715 20 10.5C20 16.0228 15.5228 20.5 10 20.5C4.47715 20.5 0 16.0228 0 10.5ZM10 2.5C5.58172 2.5 2 6.08172 2 10.5C2 14.9183 5.58172 18.5 10 18.5C14.4183 18.5 18 14.9183 18 10.5C18 6.08172 14.4183 2.5 10 2.5Z" fill="#252525"/>
</svg>
