<svg width="19" height="19" viewBox="0 0 19 19" fill="none" xmlns="http://www.w3.org/2000/svg">
<path fill-rule="evenodd" clip-rule="evenodd" d="M5.86309 0.555C6.84059 0.51 7.15225 0.5 9.64225 0.5C12.1323 0.5 12.4439 0.510833 13.4206 0.555C14.3973 0.599167 15.0639 0.755 15.6473 0.980833C16.2581 1.21167 16.8123 1.5725 17.2706 2.03917C17.7373 2.49667 18.0973 3.05 18.3273 3.66167C18.5539 4.245 18.7089 4.91167 18.7539 5.88667C18.7989 6.86583 18.8089 7.1775 18.8089 9.66667C18.8089 12.1567 18.7981 12.4683 18.7539 13.4458C18.7098 14.4208 18.5539 15.0875 18.3273 15.6708C18.0972 16.2826 17.7367 16.8368 17.2706 17.295C16.8123 17.7617 16.2581 18.1217 15.6473 18.3517C15.0639 18.5783 14.3973 18.7333 13.4223 18.7783C12.4439 18.8233 12.1323 18.8333 9.64225 18.8333C7.15225 18.8333 6.84059 18.8225 5.86309 18.7783C4.88809 18.7342 4.22142 18.5783 3.63809 18.3517C3.02635 18.1216 2.4721 17.761 2.01392 17.295C1.54757 16.8372 1.18668 16.2832 0.956419 15.6717C0.730586 15.0883 0.575586 14.4217 0.530586 13.4467C0.485586 12.4675 0.475586 12.1558 0.475586 9.66667C0.475586 7.17667 0.486419 6.865 0.530586 5.88833C0.574753 4.91167 0.730586 4.245 0.956419 3.66167C1.18702 3.05007 1.54818 2.49609 2.01475 2.03833C2.47229 1.57208 3.02598 1.2112 3.63725 0.980833C4.22059 0.755 4.88725 0.6 5.86225 0.555H5.86309ZM13.3464 2.205C12.3798 2.16083 12.0898 2.15167 9.64225 2.15167C7.19475 2.15167 6.90475 2.16083 5.93809 2.205C5.04392 2.24583 4.55892 2.395 4.23559 2.52083C3.80809 2.6875 3.50225 2.885 3.18142 3.20583C2.87729 3.50171 2.64324 3.8619 2.49642 4.26C2.37059 4.58333 2.22142 5.06833 2.18059 5.9625C2.13642 6.92917 2.12725 7.21917 2.12725 9.66667C2.12725 12.1142 2.13642 12.4042 2.18059 13.3708C2.22142 14.265 2.37059 14.75 2.49642 15.0733C2.64309 15.4708 2.87725 15.8317 3.18142 16.1275C3.47725 16.4317 3.83809 16.6658 4.23559 16.8125C4.55892 16.9383 5.04392 17.0875 5.93809 17.1283C6.90475 17.1725 7.19392 17.1817 9.64225 17.1817C12.0906 17.1817 12.3798 17.1725 13.3464 17.1283C14.2406 17.0875 14.7256 16.9383 15.0489 16.8125C15.4764 16.6458 15.7823 16.4483 16.1031 16.1275C16.4073 15.8317 16.6414 15.4708 16.7881 15.0733C16.9139 14.75 17.0631 14.265 17.1039 13.3708C17.1481 12.4042 17.1573 12.1142 17.1573 9.66667C17.1573 7.21917 17.1481 6.92917 17.1039 5.9625C17.0631 5.06833 16.9139 4.58333 16.7881 4.26C16.6214 3.8325 16.4239 3.52667 16.1031 3.20583C15.8072 2.90173 15.447 2.66768 15.0489 2.52083C14.7256 2.395 14.2406 2.24583 13.3464 2.205ZM8.47142 12.4925C9.1253 12.7647 9.8534 12.8014 10.5314 12.5964C11.2093 12.3914 11.7951 11.9574 12.1886 11.3685C12.5821 10.7796 12.759 10.0724 12.689 9.36759C12.6189 8.66278 12.3064 8.00414 11.8048 7.50417C11.4849 7.18456 11.0983 6.93984 10.6725 6.78762C10.2468 6.6354 9.79261 6.57947 9.34266 6.62385C8.89272 6.66823 8.45821 6.81181 8.07042 7.04427C7.68263 7.27674 7.35121 7.59229 7.1 7.96821C6.8488 8.34413 6.68408 8.77107 6.61768 9.2183C6.55129 9.66553 6.58488 10.1219 6.71603 10.5546C6.84719 10.9873 7.07265 11.3855 7.37619 11.7206C7.67972 12.0557 8.05377 12.3193 8.47142 12.4925ZM6.31059 6.335C6.74811 5.89748 7.26752 5.55042 7.83917 5.31363C8.41082 5.07685 9.0235 4.95498 9.64225 4.95498C10.261 4.95498 10.8737 5.07685 11.4453 5.31363C12.017 5.55042 12.5364 5.89748 12.9739 6.335C13.4114 6.77252 13.7585 7.29193 13.9953 7.86358C14.2321 8.43523 14.3539 9.04792 14.3539 9.66667C14.3539 10.2854 14.2321 10.8981 13.9953 11.4698C13.7585 12.0414 13.4114 12.5608 12.9739 12.9983C12.0903 13.8819 10.8919 14.3784 9.64225 14.3784C8.39263 14.3784 7.1942 13.8819 6.31059 12.9983C5.42697 12.1147 4.93056 10.9163 4.93056 9.66667C4.93056 8.41705 5.42697 7.21861 6.31059 6.335ZM15.3989 5.65667C15.5073 5.55439 15.5941 5.4314 15.6542 5.29498C15.7142 5.15856 15.7463 5.01147 15.7484 4.86244C15.7506 4.71341 15.7229 4.56546 15.6668 4.42734C15.6108 4.28923 15.5276 4.16376 15.4222 4.05837C15.3168 3.95297 15.1914 3.8698 15.0532 3.81376C14.9151 3.75773 14.7672 3.72998 14.6181 3.73215C14.4691 3.73432 14.322 3.76638 14.1856 3.82641C14.0492 3.88645 13.9262 3.97325 13.8239 4.08167C13.625 4.29252 13.5161 4.5726 13.5203 4.86244C13.5246 5.15228 13.6416 5.42907 13.8465 5.63404C14.0515 5.839 14.3283 5.95602 14.6181 5.96025C14.908 5.96447 15.1881 5.85557 15.3989 5.65667Z" fill="#252525"/>
</svg>
