<svg width="13" height="14" viewBox="0 0 13 14" fill="none" xmlns="http://www.w3.org/2000/svg">
<path d="M6.00195 0C9.31566 0 12.002 2.68629 12.002 6C12.002 8.4835 10.1089 11.0865 6.40195 13.8667C6.16492 14.0444 5.83899 14.0444 5.60195 13.8667C1.89503 11.0865 0.00195312 8.4835 0.00195312 6C0.00195312 2.68629 2.68824 0 6.00195 0ZM6.00195 1.33333C3.42462 1.33333 1.33529 3.42267 1.33529 6C1.33529 7.80724 2.74736 9.89049 5.6335 12.2046L6.00195 12.495L6.3704 12.2046C9.25655 9.89049 10.6686 7.80724 10.6686 6C10.6686 3.42267 8.57928 1.33333 6.00195 1.33333ZM6.00195 4.66667C6.73833 4.66667 7.33529 5.26362 7.33529 6C7.33529 6.73638 6.73833 7.33333 6.00195 7.33333C5.26557 7.33333 4.66862 6.73638 4.66862 6C4.66862 5.26362 5.26557 4.66667 6.00195 4.66667Z" fill="#212121"/>
</svg>
