<svg width="14" height="19" viewBox="0 0 14 19" fill="none" xmlns="http://www.w3.org/2000/svg">
<path d="M13 0.5C13.2449 0.500032 13.4813 0.589956 13.6644 0.752715C13.8474 0.915475 13.9643 1.13975 13.993 1.383L14 1.5V17.5C13.9997 17.7549 13.9021 18 13.7272 18.1854C13.5522 18.3707 13.313 18.4822 13.0586 18.4972C12.8042 18.5121 12.5536 18.4293 12.3582 18.2657C12.1627 18.1021 12.0371 17.8701 12.007 17.617L12 17.5V12.5H11C10.7551 12.5 10.5187 12.41 10.3356 12.2473C10.1526 12.0845 10.0357 11.8603 10.007 11.617L10 11.5V5.5C10 3.29 11.5 0.5 13 0.5ZM7 0.5C7.24493 0.500032 7.48134 0.589956 7.66437 0.752715C7.84741 0.915475 7.96434 1.13975 7.993 1.383L8 1.5V6.5C7.99988 7.38687 7.70518 8.24858 7.16217 8.94978C6.61916 9.65098 5.85862 10.1519 5 10.374V17.5C4.99972 17.7549 4.90212 18 4.72715 18.1854C4.55218 18.3707 4.31305 18.4822 4.05861 18.4972C3.80416 18.5121 3.55362 18.4293 3.35817 18.2657C3.16271 18.1021 3.0371 17.8701 3.007 17.617L3 17.5V10.374C2.17545 10.1608 1.44041 9.69019 0.901764 9.03051C0.363121 8.37083 0.0489702 7.55652 0.00500011 6.706L0 6.5V1.5C0.000282707 1.24512 0.0978789 0.999968 0.272848 0.814632C0.447817 0.629296 0.686953 0.517765 0.941395 0.502828C1.19584 0.487891 1.44638 0.570675 1.64183 0.734265C1.83729 0.897855 1.9629 1.1299 1.993 1.383L2 1.5V6.5C2.00001 6.85106 2.09243 7.19594 2.26796 7.49997C2.4435 7.804 2.69597 8.05647 3 8.232V1.5C3.00028 1.24512 3.09788 0.999968 3.27285 0.814632C3.44782 0.629296 3.68695 0.517765 3.94139 0.502828C4.19584 0.487891 4.44638 0.570675 4.64183 0.734265C4.83729 0.897855 4.9629 1.1299 4.993 1.383L5 1.5L5.001 8.232C5.28006 8.07069 5.516 7.84433 5.68873 7.57218C5.86145 7.30004 5.96584 6.99018 5.993 6.669L6 6.5V1.5C6 1.23478 6.10536 0.98043 6.29289 0.792893C6.48043 0.605357 6.73478 0.5 7 0.5Z" fill="black"/>
</svg>
