<svg width="8" height="14" viewBox="0 0 8 14" fill="none" xmlns="http://www.w3.org/2000/svg">
<path d="M3.33333 9.66732C2.96514 9.66732 2.66667 9.9658 2.66667 10.334C2.66667 10.7022 2.96514 11.0007 3.33333 11.0007H4.66667C5.03486 11.0007 5.33333 10.7022 5.33333 10.334C5.33333 9.9658 5.03486 9.66732 4.66667 9.66732H3.33333ZM2 0.333984C0.895431 0.333984 0 1.22941 0 2.33398V11.6673C0 12.7719 0.89543 13.6673 2 13.6673H6C7.10457 13.6673 8 12.7719 8 11.6673V2.33398C8 1.22942 7.10457 0.333984 6 0.333984H2ZM1.33333 2.33398C1.33333 1.96579 1.63181 1.66732 2 1.66732H6C6.36819 1.66732 6.66667 1.96579 6.66667 2.33398V11.6673C6.66667 12.0355 6.36819 12.334 6 12.334H2C1.63181 12.334 1.33333 12.0355 1.33333 11.6673V2.33398Z" fill="#212121"/>
</svg>
