<svg width="20" height="16" viewBox="0 0 20 16" fill="none" xmlns="http://www.w3.org/2000/svg">
<path d="M14.5 8.5C15.0523 8.5 15.5 8.05229 15.5 7.5C15.5 6.94771 15.0523 6.5 14.5 6.5C13.9477 6.5 13.5 6.94771 13.5 7.5C13.5 8.05229 13.9477 8.5 14.5 8.5ZM0 3.75C0 1.67893 1.67893 0 3.75 0H16.25C18.3211 0 20 1.67893 20 3.75V12.25C20 14.3211 18.3211 16 16.25 16H3.75C1.67893 16 0 14.3211 0 12.25V3.75ZM7.5 5C6.67157 5 6 5.67157 6 6.5V11.5C6 11.7665 6.06949 12.0167 6.19134 12.2336L9.59145 8.62096C10.0834 8.09824 10.9136 8.0963 11.408 8.61673L15.5705 12.9984C16.3662 12.9616 17 12.3048 17 11.5V6.5C17 5.67157 16.3284 5 15.5 5H7.5ZM13.5031 13L10.5026 9.84153L7.52991 13H13.5031Z" fill="#212121"/>
</svg>
