<svg width="28" height="30" viewBox="0 0 28 30" fill="none" xmlns="http://www.w3.org/2000/svg">
<path d="M1.3211 13.9291C1.3211 13.9291 0.346322 12.5083 1.76802 11.5344C3.18799 10.5604 4.16191 11.9804 4.16191 11.9804L8.6836 18.5748C8.83946 18.3147 9.00996 18.0581 9.20027 17.805L2.92449 8.65394C2.92449 8.65394 1.95057 7.23397 3.37141 6.26005C4.79138 5.28613 5.76529 6.70611 5.76529 6.70611L11.6682 15.3146C11.8878 15.1355 12.1125 14.9556 12.3442 14.779L5.50093 4.79788C5.50093 4.79788 4.52702 3.37791 5.94785 2.40399C7.36782 1.43008 8.34174 2.85005 8.34174 2.85005L15.185 12.8295C15.4364 12.6753 15.6853 12.5419 15.935 12.4006L9.53868 3.07308C9.53868 3.07308 8.56477 1.65311 9.98474 0.679189C11.4047 -0.294728 12.3786 1.12524 12.3786 1.12524L19.1418 10.9884L20.17 12.4885C15.9092 15.4111 15.5036 20.9093 17.938 24.4596C18.4245 25.1701 19.1349 24.6835 19.1349 24.6835C16.2132 20.4219 17.1053 15.6332 21.3669 12.7115L20.1105 6.42366C20.1105 6.42366 19.6412 4.76688 21.2972 4.29672C22.9539 3.82741 23.4241 5.48419 23.4241 5.48419L24.8751 9.79319C25.4503 11.5016 26.0625 13.2041 26.8728 14.8143C29.1608 19.361 27.7942 25.0116 23.4801 27.9712C18.7741 31.1978 12.3407 29.9983 9.11329 25.2932L1.3211 13.9291Z" fill="#C9C9C9"/>
</svg>
