<svg width="12" height="12" viewBox="0 0 12 12" fill="none" xmlns="http://www.w3.org/2000/svg">
<path d="M6.00098 12C9.31468 12 12.001 9.31371 12.001 6C12.001 2.68629 9.31468 0 6.00098 0C2.68727 0 0.000976562 2.68629 0.000976562 6C0.000976562 9.31371 2.68727 12 6.00098 12ZM6.00098 1C6.37469 1 6.87641 1.35608 7.31356 2.31781C7.40828 2.52619 7.49546 2.75446 7.57363 3H4.42832C4.5065 2.75446 4.59368 2.52619 4.68839 2.31781C5.12554 1.35608 5.62726 1 6.00098 1ZM3.77803 1.90401C3.62712 2.23601 3.49526 2.6038 3.38509 3H2.00061C2.52438 2.30269 3.22623 1.74677 4.03863 1.39978C3.94384 1.56117 3.85694 1.7304 3.77803 1.90401ZM3.16396 4C3.05792 4.6275 3.00098 5.30146 3.00098 6C3.00098 6.69854 3.05792 7.3725 3.16396 8H1.41702C1.14942 7.38754 1.00098 6.7111 1.00098 6C1.00098 5.2889 1.14942 4.61246 1.41702 4H3.16396ZM3.38509 9C3.49526 9.3962 3.62712 9.76399 3.77803 10.096C3.85694 10.2696 3.94384 10.4388 4.03863 10.6002C3.22623 10.2532 2.52438 9.69731 2.00061 9H3.38509ZM4.42832 9H7.57363C7.49546 9.24554 7.40828 9.47381 7.31356 9.68219C6.87641 10.6439 6.37469 11 6.00098 11C5.62726 11 5.12554 10.6439 4.68839 9.68219C4.59368 9.47381 4.5065 9.24554 4.42832 9ZM7.82232 8H4.17964C4.06536 7.3892 4.00098 6.71396 4.00098 6C4.00098 5.28604 4.06536 4.6108 4.17964 4H7.82232C7.9366 4.6108 8.00098 5.28604 8.00098 6C8.00098 6.71396 7.9366 7.3892 7.82232 8ZM8.61686 9H10.0013C9.47757 9.69731 8.77573 10.2532 7.96332 10.6002C8.05811 10.4388 8.14501 10.2696 8.22393 10.096C8.37483 9.76399 8.50669 9.3962 8.61686 9ZM10.5849 8H8.83799C8.94404 7.3725 9.00098 6.69854 9.00098 6C9.00098 5.30146 8.94404 4.6275 8.83799 4H10.5849C10.8525 4.61246 11.001 5.2889 11.001 6C11.001 6.7111 10.8525 7.38754 10.5849 8ZM7.96332 1.39978C8.77572 1.74677 9.47757 2.30269 10.0013 3H8.61686C8.50669 2.6038 8.37483 2.23601 8.22393 1.90401C8.14501 1.7304 8.05811 1.56117 7.96332 1.39978Z" fill="#212121"/>
</svg>
