<svg width="16" height="21" viewBox="0 0 16 21" fill="none" xmlns="http://www.w3.org/2000/svg">
<path d="M15.5914 16.1882C15.4739 16.9957 13.827 19.092 13.0689 19.3945C12.8083 19.4951 12.5608 19.4726 12.3595 19.3195C12.2326 19.2189 12.0989 19.0132 10.322 16.1295L9.79452 15.2701C9.58952 14.9607 9.62827 14.5539 9.88264 14.2445C10.1301 13.9451 10.4914 13.8345 10.807 13.9545C10.8233 13.9645 12.1383 14.3939 12.1383 14.3939C15.1264 15.377 15.2245 15.4157 15.3514 15.5101C15.5401 15.6664 15.6283 15.907 15.5889 16.187L15.5914 16.1882ZM9.60202 11.8001C9.38702 11.4776 9.39389 11.097 9.61202 10.8364L10.442 9.70323C12.2651 7.21636 12.3689 7.08574 12.4926 6.99824C12.7045 6.85511 12.9676 6.84824 13.2183 6.97199C13.9408 7.32386 15.4026 9.49448 15.4901 10.3282V10.3576C15.5164 10.6407 15.402 10.872 15.2039 11.012C15.067 11.1001 14.9401 11.1489 11.542 11.9757C11.0051 12.1126 10.7051 12.1876 10.5295 12.2495L10.552 12.2232C10.217 12.3239 9.84264 12.1614 9.62764 11.8264L9.60202 11.8001ZM7.51202 10.5114C7.35264 10.5601 6.85764 10.7132 6.24889 9.73011C6.24889 9.73011 2.13764 3.26199 2.04327 3.06324C1.98452 2.83886 2.05327 2.58449 2.25514 2.37949C2.86702 1.74449 6.18389 0.816987 7.05327 1.02886C7.33639 1.10386 7.53202 1.27949 7.60014 1.53324C7.65202 1.81324 8.05577 7.81261 8.11452 9.15699C8.17014 10.3064 7.67514 10.4626 7.51202 10.5114ZM8.05577 17.087C8.04577 20.2314 8.03952 20.3389 7.98764 20.4889C7.90327 20.7201 7.70139 20.8795 7.42139 20.9282C6.62077 21.0651 4.11764 20.1407 3.59327 19.522C3.49264 19.3851 3.43077 19.2482 3.41764 19.1089C3.40407 19.0116 3.4177 18.9126 3.45702 18.8226C3.51889 18.6601 3.60702 18.5326 5.85639 15.8964L6.51702 15.112C6.74514 14.822 7.14202 14.7345 7.51639 14.8839C7.88077 15.0207 8.10577 15.3332 8.07952 15.6714V17.0714L8.05577 17.087ZM1.23577 15.0751C0.991391 15.0689 0.770141 14.9189 0.640141 14.6745C0.548891 14.4957 0.483891 14.2026 0.441391 13.8414C0.327641 12.7576 0.467641 11.1201 0.793266 10.6026C0.943266 10.3651 1.16764 10.2382 1.41202 10.2476C1.57452 10.2476 1.72139 10.2964 4.93764 11.6214L5.87827 11.9957C6.21702 12.1226 6.42514 12.4707 6.40577 12.8714C6.37952 13.2589 6.15514 13.5582 5.82639 13.6464L4.48827 14.0726C1.49702 15.0364 1.39577 15.0589 1.23952 15.0457L1.23577 15.0751ZM13.7164 20.9964H13.7133L13.7101 20.9995L13.7164 20.9964Z" fill="#252525"/>
</svg>
