<svg width="22" height="16" viewBox="0 0 22 16" fill="none" xmlns="http://www.w3.org/2000/svg">
<path d="M21.5 8.06601C21.5 8.11758 21.5 8.17617 21.4977 8.24414C21.4953 8.43398 21.4906 8.64726 21.4859 8.87461C21.4672 9.52851 21.4344 10.1801 21.3828 10.7941C21.3125 11.6402 21.2094 12.3457 21.0687 12.8754C20.9204 13.4282 20.6295 13.9323 20.2252 14.3374C19.8209 14.7426 19.3173 15.0345 18.7648 15.184C18.1016 15.3621 16.8031 15.4723 14.975 15.5402C14.1055 15.573 13.175 15.5941 12.2445 15.6059C11.9187 15.6105 11.6164 15.6129 11.3445 15.6152H10.6555C10.3836 15.6129 10.0813 15.6105 9.75547 15.6059C8.825 15.5941 7.89453 15.573 7.025 15.5402C5.19687 15.4699 3.89609 15.3598 3.23516 15.184C2.6825 15.0348 2.17876 14.743 1.7744 14.3379C1.37004 13.9327 1.07928 13.4283 0.93125 12.8754C0.788281 12.3457 0.6875 11.6402 0.617188 10.7941C0.565625 10.1801 0.532812 9.52851 0.514062 8.87461C0.507031 8.64726 0.504687 8.43398 0.502344 8.24414C0.502344 8.17617 0.5 8.11758 0.5 8.06601V7.93476C0.5 7.8832 0.5 7.82461 0.502344 7.75664C0.504687 7.5668 0.509375 7.35351 0.514062 7.12617C0.532812 6.47226 0.565625 5.8207 0.617188 5.20664C0.6875 4.36055 0.790625 3.65508 0.93125 3.12539C1.23125 2.00273 2.1125 1.11679 3.23516 0.816794C3.89609 0.638669 5.19687 0.528514 7.025 0.460545C7.89453 0.427732 8.825 0.406637 9.75547 0.394918C10.0813 0.390231 10.3836 0.387887 10.6555 0.385543H11.3445C11.6164 0.387887 11.9187 0.390231 12.2445 0.394918C13.175 0.406637 14.1055 0.427732 14.975 0.460545C16.8031 0.530857 18.1039 0.641013 18.7648 0.816794C19.8875 1.11679 20.7687 2.00039 21.0687 3.12539C21.2117 3.65508 21.3125 4.36055 21.3828 5.20664C21.4344 5.8207 21.4672 6.47226 21.4859 7.12617C21.493 7.35351 21.4953 7.5668 21.4977 7.75664C21.4977 7.82461 21.5 7.8832 21.5 7.93476V8.06601ZM19.8125 7.94414C19.8125 7.89492 19.8125 7.84101 19.8102 7.77773C19.8078 7.59492 19.8031 7.39336 19.7984 7.17539C19.782 6.55195 19.7492 5.92851 19.7 5.34961C19.6367 4.59492 19.5477 3.97617 19.4375 3.56133C19.2922 3.01992 18.8656 2.59101 18.3266 2.44804C17.8344 2.31679 16.5945 2.21133 14.9094 2.14805C14.0562 2.11523 13.1375 2.09414 12.2211 2.08242C11.9 2.07773 11.6023 2.07539 11.3352 2.07539H10.6648L9.77891 2.08242C8.8625 2.09414 7.94609 2.11523 7.09063 2.14805C5.40547 2.21367 4.16328 2.31679 3.67344 2.44804C3.13437 2.59336 2.70781 3.01992 2.5625 3.56133C2.45234 3.97617 2.36328 4.59492 2.3 5.34961C2.25078 5.92851 2.22031 6.55195 2.20156 7.17539C2.19453 7.39336 2.19219 7.59726 2.18984 7.77773C2.18984 7.84101 2.1875 7.89726 2.1875 7.94414V8.05664C2.1875 8.10586 2.1875 8.15976 2.18984 8.22305C2.19219 8.40586 2.19688 8.60742 2.20156 8.82539C2.21797 9.44883 2.25078 10.0723 2.3 10.6512C2.36328 11.4059 2.45234 12.0246 2.5625 12.4395C2.70781 12.9809 3.13437 13.4098 3.67344 13.5527C4.16562 13.684 5.40547 13.7895 7.09063 13.8527C7.94375 13.8855 8.8625 13.9066 9.77891 13.9184C10.1 13.923 10.3977 13.9254 10.6648 13.9254H11.3352L12.2211 13.9184C13.1375 13.9066 14.0539 13.8855 14.9094 13.8527C16.5945 13.7871 17.8367 13.684 18.3266 13.5527C18.8656 13.4074 19.2922 12.9809 19.4375 12.4395C19.5477 12.0246 19.6367 11.4059 19.7 10.6512C19.7492 10.0723 19.7797 9.44883 19.7984 8.82539C19.8055 8.60742 19.8078 8.40351 19.8102 8.22305C19.8102 8.15976 19.8125 8.10351 19.8125 8.05664V7.94414ZM8.91406 4.85976L14.3516 8.02383L8.91406 11.141V4.85976Z" fill="#252525"/>
</svg>
